<?xml version="1.0" encoding="utf-8"?>
<!-- Generator: Adobe Illustrator 24.0.1, SVG Export Plug-In . SVG Version: 6.00 Build 0)  -->
<svg version="1.1" id="图层_1" xmlns="http://www.w3.org/2000/svg" xmlns:xlink="http://www.w3.org/1999/xlink" x="0px" y="0px"
	 viewBox="0 0 750 625" style="enable-background:new 0 0 750 625;" xml:space="preserve">
<style type="text/css">
	.st0{fill:#33363E;}
	.st1{opacity:0.73;fill:#4A4E59;enable-background:new    ;}
	.st2{fill:url(#SVGID_1_);}
	.st3{opacity:0.57;}
	.st4{fill:#FFFFFF;}
	.st5{font-family:'FZSKJW--GB1-0';}
	.st6{font-size:137.679px;}
	.st7{opacity:0.5;}
	.st8{fill:#282A30;}
	.st9{fill:#454851;}
	.st10{opacity:0.76;fill:#33363D;enable-background:new    ;}
	.st11{fill:#FFAE5E;}
</style>
<path class="st0" d="M404.01,530.44c-38.28-5.15-84.53-0.68-103.3,9.99c-18.77,10.66-2.95,23.48,35.33,28.63s84.53,0.68,103.3-9.99
	C458.11,548.41,442.29,535.59,404.01,530.44z"/>
<path class="st1" d="M300.7,547c18.77-10.66,65.02-15.14,103.3-9.99c23.55,3.17,38.58,9.24,42.3,15.92
	c5.1-9.05-11.17-18.31-42.3-22.49c-38.28-5.15-84.53-0.68-103.3,9.99c-7.22,4.1-9.31,8.53-6.98,12.71
	C294.9,551.06,297.2,548.99,300.7,547z"/>
<linearGradient id="SVGID_1_" gradientUnits="userSpaceOnUse" x1="381.35" y1="1987.2131" x2="381.35" y2="1495.98" gradientTransform="matrix(1 0 0 1 0 -1416)">
	<stop  offset="0.0337" style="stop-color:#2A2E40;stop-opacity:0.6"/>
	<stop  offset="0.9996" style="stop-color:#2B2D35"/>
</linearGradient>
<path class="st2" d="M551.83,385.99l-102.29,1.38l1.01,32.45l-95.02,19.33l24.16,12.88l-17.72,25.77l62.81,22.55l-22.63,29.86
	L371.1,571.2c-1.76,0.02-3.49,0.02-5.23-0.02l25.62-42.05l15.57-25.56l-62.81-19.33l12.88-25.77l-48.32-24.16l95.02-27.38
	l-30.13-18.54l-181.3,2.44L152.65,144.4l418.74-40.26L551.83,385.99z M584.27,133.13l-19.33,227.09l28.99-222.26L584.27,133.13z
	 M139.76,158.9l-6.44,9.66l27.38,83.75L139.76,158.9z M510.19,79.98l-264.13,40.26l267.35-24.16L510.19,79.98z M159.3,365.05
	l4.62,12.88h11.27l-2.5-12.88H159.3z M154.26,270.03h-28.99l28.85,80.53h15.77L154.26,270.03z M587.49,271.64h11.27l4.62-12.88
	h-13.39L587.49,271.64z M608.43,163.73l-15.62,80.53h15.77l28.85-80.53H608.43z"/>
<g class="st3">
	<text transform="matrix(1.2515 0 0 1 227.0405 297.8276)" class="st4 st5 st6">404</text>
</g>
<g class="st7">
	<g>
		<path class="st8" d="M250.36,554.95c12.72,6.95,2,15.3-23.95,18.65c-25.95,3.35-57.3,0.44-70.03-6.51
			c-12.72-6.95-2-15.3,23.95-18.65C206.29,545.09,237.64,548.01,250.36,554.95z"/>
	</g>
</g>
<path class="st9" d="M255.76,557.89c-0.29-1.28-0.59-2.56-0.88-3.84c0.07,0.31,0.1,0.61,0.09,0.92c0.01-0.31-0.02-0.62-0.09-0.92
	c-0.28-1.2-0.89-2.3-1.86-3.38c-0.19-0.21-0.45-0.48-0.66-0.66c-0.41-0.36-0.97-0.81-1.4-1.14c-0.52-0.4-1.28-0.83-1.83-1.17
	c-0.73-0.39-1.71-0.89-2.46-1.24c-0.64-0.3-1.52-0.65-2.18-0.9c-1.28-0.47-3.02-1.02-4.32-1.41c-0.84-0.25-1.98-0.53-2.83-0.74
	c-1.93-0.48-5.03-1.07-5.75-1.18c-0.93-0.15-2.17-0.37-3.1-0.5c-1.94-0.26-4.53-0.59-6.48-0.78c-2.01-0.2-9.21-0.84-17.57-0.7
	c-2.61,0.04-2.61,0.04-7.2,0.26c-1.07,0.05-2.49,0.17-3.56,0.25c-1.14,0.08-3.28,0.28-7.02,0.76c-0.3,0.04-3.03,0.39-6.33,1.03
	c-1.66,0.32-3.86,0.84-5.5,1.25c-1.97,0.49-5.22,1.54-7.26,2.46c-1.22,0.55-2.18,1-3.43,1.78c-1.23,0.77-1.82,1.28-2.58,1.97
	c-0.07,0.07-0.47,0.43-0.99,1.1c-0.26,0.33-0.4,0.55-0.66,0.98c0,0-0.22,0.37-0.44,0.92c-0.12,0.29-0.13,0.33-0.28,0.89
	c-0.04,0.15-0.04,0.31-0.05,0.46c0.02-0.15,0.02-0.31,0.05-0.46c-0.3,1.28-0.6,2.56-0.9,3.84c-0.53,2.28,1.01,4.64,4.9,6.84
	c11.87,6.75,41.13,9.57,65.34,6.32C246.8,568.44,256.98,563.21,255.76,557.89z"/>
<g>
	<path class="st9" d="M247.91,547.48c11.07,6.29,1.74,13.85-20.84,16.89c-22.58,3.04-49.86,0.4-60.93-5.89
		c-11.07-6.29-1.74-13.85,20.84-16.89C209.56,538.55,236.84,541.19,247.91,547.48z M236.65,548.99c-8.02-4.56-27.79-6.47-44.16-4.27
		c-16.36,2.2-23.12,7.68-15.1,12.24c8.02,4.56,27.79,6.47,44.16,4.27S244.68,553.55,236.65,548.99"/>
</g>
<path class="st9" d="M215.82,467.3c-0.47-1.65-1.71-2.41-2.24-2.73c-0.47-0.25-1.57-0.85-3.95-1.14c-0.97-0.12-2.92-0.27-5.19,0.03
	c-2.49,0.33-3.62,1.06-4.05,1.33c-0.44,0.28-0.85,0.68-1.22,1.17c-0.37,0.5-0.54,1.03-0.64,1.31c-0.12,0.42,0.15,0.85,0.86,1.25
	c2.11,1.2,7.3,1.7,11.6,1.12C214.28,469.2,216.09,468.26,215.82,467.3z"/>
<path class="st10" d="M174.12,552.2c0.73-2.55,1.71-5.94,2.44-8.49c0.37-1.27,0.85-2.97,1.22-4.25c0.73-2.55,1.71-5.94,2.44-8.49
	s1.71-5.94,2.44-8.49c0.37-1.27,0.85-2.97,1.22-4.25c0.73-2.55,1.71-5.94,2.44-8.49s1.71-5.94,2.44-8.49
	c0.37-1.27,0.85-2.97,1.22-4.25c0.73-2.55,1.71-5.94,2.44-8.49s1.71-5.94,2.44-8.49c0.37-1.27,0.85-2.97,1.22-4.25
	c0.73-2.55,1.71-5.94,2.44-8.49c-0.12,0.42,0.15,0.85,0.86,1.25c2.11,1.2,7.3,1.7,11.6,1.12c3.29-0.44,5.1-1.39,4.83-2.34l0,0
	c0.72,2.55,1.69,5.95,2.41,8.5s1.69,5.95,2.41,8.5s1.69,5.95,2.41,8.5s1.69,5.95,2.41,8.5s1.69,5.95,2.41,8.5
	c0.72,2.55,1.69,5.95,2.41,8.5c0.36,1.28,0.84,2.98,1.21,4.25c0.72,2.55,1.69,5.95,2.41,8.5s1.69,5.95,2.41,8.5
	c0.36,1.28,0.84,2.98,1.21,4.25c0.72,2.55,1.69,5.95,2.41,8.5c1.03,3.64-5.87,7.24-18.38,8.92c-16.36,2.2-36.13,0.29-44.16-4.27
	C174.69,555.42,173.67,553.78,174.12,552.2z"/>
<g>
	<path class="st9" d="M226.98,506.65c0.62,2.2-3.54,4.37-11.1,5.39c-9.88,1.33-21.82,0.17-26.67-2.58
		c-1.63-0.93-2.25-1.92-1.98-2.88c0.73-2.55,1.71-5.94,2.44-8.49c0.37-1.27,0.85-2.97,1.22-4.25c0.51-1.76,1.18-4.11,1.69-5.87
		c-0.2,0.7,0.25,1.43,1.45,2.11c3.55,2.02,12.29,2.86,19.53,1.89c5.53-0.74,8.59-2.34,8.13-3.95c0.72,2.55,1.69,5.95,2.41,8.5
		c0.36,1.28,0.84,2.98,1.21,4.25C225.81,502.54,226.48,504.88,226.98,506.65"/>
	<path class="st9" d="M236.61,540.6c0.93,3.27-5.27,6.5-16.51,8.01c-14.7,1.98-32.46,0.26-39.67-3.84
		c-2.43-1.38-3.35-2.85-2.94-4.28c0.73-2.55,1.71-5.94,2.44-8.49c0.37-1.27,0.85-2.97,1.22-4.25c0.51-1.76,1.18-4.11,1.69-5.87
		c-0.34,1.17,0.42,2.38,2.41,3.51c5.91,3.36,20.48,4.77,32.54,3.15c9.22-1.24,14.3-3.89,13.54-6.57L236.61,540.6"/>
</g>
<path class="st11" d="M254.88,554.05L254.88,554.05L254.88,554.05z"/>
<path class="st11" d="M488.48,554.05L488.48,554.05L488.48,554.05z"/>
<g class="st7">
	<g>
		<path class="st8" d="M597.17,554.95c12.72,6.95,2,15.3-23.95,18.65c-25.95,3.35-57.3,0.44-70.03-6.51
			c-12.72-6.95-2-15.3,23.95-18.65C553.1,545.09,584.45,548.01,597.17,554.95z"/>
	</g>
</g>
<path class="st9" d="M593.83,558.23c-0.29-1.28-0.59-2.56-0.88-3.84c0.07,0.31,0.1,0.61,0.09,0.92c0.01-0.31-0.02-0.62-0.09-0.92
	c-0.28-1.2-0.89-2.3-1.86-3.38c-0.19-0.21-0.45-0.48-0.66-0.66c-0.41-0.36-0.97-0.81-1.4-1.14c-0.52-0.4-1.28-0.83-1.83-1.17
	c-0.73-0.39-1.71-0.89-2.46-1.24c-0.64-0.3-1.52-0.65-2.18-0.9c-1.28-0.47-3.02-1.02-4.32-1.41c-0.84-0.25-1.98-0.53-2.83-0.74
	c-1.93-0.48-5.03-1.07-5.75-1.18c-0.93-0.15-2.17-0.37-3.1-0.5c-1.94-0.26-4.53-0.59-6.48-0.78c-2.01-0.2-9.21-0.84-17.57-0.7
	c-2.61,0.04-2.61,0.04-7.2,0.26c-1.07,0.05-2.49,0.17-3.56,0.25c-1.14,0.08-3.28,0.28-7.02,0.76c-0.3,0.04-3.03,0.39-6.33,1.03
	c-1.66,0.32-3.86,0.84-5.5,1.25c-1.97,0.49-5.22,1.54-7.26,2.46c-1.22,0.55-2.18,1-3.43,1.78c-1.23,0.77-1.82,1.28-2.58,1.97
	c-0.07,0.07-0.47,0.43-0.99,1.1c-0.26,0.33-0.4,0.55-0.66,0.98c0,0-0.22,0.37-0.44,0.92c-0.12,0.29-0.13,0.33-0.28,0.89
	c-0.04,0.15-0.04,0.31-0.05,0.46c0.02-0.15,0.02-0.31,0.05-0.46c-0.3,1.28-0.6,2.56-0.9,3.84c-0.53,2.28,1.01,4.64,4.9,6.84
	c11.87,6.75,41.13,9.57,65.34,6.32C584.87,568.78,595.05,563.55,593.83,558.23z"/>
<g>
	<path class="st9" d="M585.98,547.82c11.07,6.29,1.74,13.85-20.84,16.89c-22.58,3.04-49.86,0.4-60.93-5.89
		c-11.07-6.29-1.74-13.85,20.84-16.89C547.63,538.89,574.91,541.53,585.98,547.82z M574.72,549.33c-8.02-4.56-27.79-6.47-44.16-4.27
		c-16.36,2.2-23.12,7.68-15.1,12.24s27.79,6.47,44.16,4.27S582.75,553.89,574.72,549.33"/>
</g>
<path class="st9" d="M553.89,467.64c-0.47-1.65-1.71-2.41-2.24-2.73c-0.47-0.25-1.57-0.85-3.95-1.14c-0.97-0.12-2.92-0.27-5.19,0.03
	c-2.49,0.33-3.62,1.06-4.05,1.33c-0.44,0.28-0.85,0.68-1.22,1.17c-0.37,0.5-0.54,1.03-0.64,1.31c-0.12,0.42,0.15,0.85,0.86,1.25
	c2.11,1.2,7.3,1.7,11.6,1.12C552.35,469.54,554.16,468.6,553.89,467.64z"/>
<path class="st10" d="M512.19,552.54c0.73-2.55,1.71-5.94,2.44-8.49c0.37-1.27,0.85-2.97,1.22-4.25c0.73-2.55,1.71-5.94,2.44-8.49
	s1.71-5.94,2.44-8.49c0.37-1.27,0.85-2.97,1.22-4.25c0.73-2.55,1.71-5.94,2.44-8.49s1.71-5.94,2.44-8.49
	c0.37-1.27,0.85-2.97,1.22-4.25c0.73-2.55,1.71-5.94,2.44-8.49s1.71-5.94,2.44-8.49c0.37-1.27,0.85-2.97,1.22-4.25
	c0.73-2.55,1.71-5.94,2.44-8.49c-0.12,0.42,0.15,0.85,0.86,1.25c2.11,1.2,7.3,1.7,11.6,1.12c3.29-0.44,5.1-1.39,4.83-2.34l0,0
	c0.72,2.55,1.69,5.95,2.41,8.5s1.69,5.95,2.41,8.5s1.69,5.95,2.41,8.5s1.69,5.95,2.41,8.5s1.69,5.95,2.41,8.5
	c0.72,2.55,1.69,5.95,2.41,8.5c0.36,1.28,0.84,2.98,1.21,4.25c0.72,2.55,1.69,5.95,2.41,8.5s1.69,5.95,2.41,8.5
	c0.36,1.28,0.84,2.98,1.21,4.25c0.72,2.55,1.69,5.95,2.41,8.5c1.03,3.64-5.87,7.24-18.38,8.92c-16.36,2.2-36.13,0.29-44.16-4.27
	C512.76,555.76,511.74,554.12,512.19,552.54z"/>
<g>
	<path class="st9" d="M565.05,506.99c0.62,2.2-3.54,4.37-11.1,5.39c-9.88,1.33-21.82,0.17-26.67-2.58
		c-1.63-0.93-2.25-1.92-1.98-2.88c0.73-2.55,1.71-5.94,2.44-8.49c0.37-1.27,0.85-2.97,1.22-4.25c0.51-1.76,1.18-4.11,1.69-5.87
		c-0.2,0.7,0.25,1.43,1.45,2.11c3.55,2.02,12.29,2.86,19.53,1.89c5.53-0.74,8.59-2.34,8.13-3.95c0.72,2.55,1.69,5.95,2.41,8.5
		c0.36,1.28,0.84,2.98,1.21,4.25C563.88,502.88,564.55,505.22,565.05,506.99"/>
	<path class="st9" d="M574.68,540.94c0.93,3.27-5.27,6.5-16.51,8.01c-14.7,1.98-32.46,0.26-39.67-3.84
		c-2.43-1.38-3.35-2.85-2.94-4.28c0.73-2.55,1.71-5.94,2.44-8.49c0.37-1.27,0.85-2.97,1.22-4.25c0.51-1.76,1.18-4.11,1.69-5.87
		c-0.34,1.17,0.42,2.38,2.41,3.51c5.91,3.36,20.48,4.77,32.54,3.15c9.22-1.24,14.3-3.89,13.54-6.57L574.68,540.94"/>
</g>
</svg>
