<svg width="28" height="28" viewBox="0 0 28 28" fill="none" xmlns="http://www.w3.org/2000/svg">
<path d="M14 28C21.732 28 28 21.732 28 14C28 6.26801 21.732 0 14 0C6.26801 0 0 6.26801 0 14C0 21.732 6.26801 28 14 28Z" fill="#0058E3"/>
<path opacity="0.2" d="M13.3111 13.3126C13.8932 13.452 14.4999 13.452 15.0738 13.3126C15.4017 11.9681 16.4511 10.9187 17.7957 10.5907C18.2794 8.59854 17.066 6.58993 15.0738 6.10623C13.0816 5.62252 11.0812 6.83588 10.5893 8.82809C10.4499 9.41018 10.4499 10.0169 10.5893 10.5907C11.9338 10.9269 12.9832 11.9763 13.3111 13.3126Z" fill="white"/>
<path opacity="0.6" d="M15.0819 15.0834C14.4998 14.9441 13.8931 14.9441 13.3192 15.0834C12.9913 16.428 11.9419 17.4774 10.5974 17.8053C10.1137 19.7975 11.327 21.8061 13.3192 22.2898C15.3115 22.7735 17.3201 21.5602 17.8038 19.568C17.9431 18.9859 17.9431 18.3874 17.8038 17.8053C16.4592 17.4692 15.4098 16.4198 15.0819 15.0834Z" fill="white"/>
<path opacity="0.4" d="M18.6814 10.4841C18.3862 10.4841 18.0911 10.5169 17.7959 10.5907C17.468 11.9352 16.4186 12.9846 15.0741 13.3125C14.9347 13.8946 14.9347 14.5013 15.0741 15.0752C16.4186 15.4031 17.468 16.4525 17.7959 17.7971C19.7881 18.2808 21.7968 17.0674 22.2805 15.0752C22.7642 13.083 21.5508 11.0744 19.5586 10.5907C19.2799 10.5251 18.9847 10.4841 18.6814 10.4841Z" fill="white"/>
<path opacity="0.8" d="M13.3111 15.0838C13.4505 14.5017 13.4505 13.895 13.3111 13.3211C11.9748 12.985 10.9254 11.9356 10.5892 10.591C8.59701 10.1073 6.5884 11.3207 6.1047 13.3129C5.62099 15.3051 6.83436 17.3137 8.82657 17.8056C9.40865 17.945 10.0071 17.945 10.5892 17.8056C10.9254 16.4611 11.9666 15.4117 13.3111 15.0838Z" fill="white"/>
<path opacity="0.6" d="M15.0818 13.3125C16.4263 12.9846 17.4757 11.9352 17.8037 10.5906C16.4591 10.9268 15.4097 11.9762 15.0818 13.3125Z" fill="white"/>
<path opacity="0.8" d="M15.0818 15.0833C15.4097 16.4278 16.4591 17.4772 17.8037 17.8052C17.4675 16.4606 16.4263 15.4112 15.0818 15.0833Z" fill="white"/>
<path opacity="0.9" d="M13.311 13.3125C12.983 11.9762 11.9336 10.9268 10.5891 10.5906C10.9252 11.9352 11.9746 12.9846 13.311 13.3125Z" fill="white"/>
<path opacity="0.9" d="M13.311 15.0833C11.9664 15.4112 10.917 16.4606 10.5891 17.8052C11.9336 17.469 12.983 16.4196 13.311 15.0833Z" fill="white"/>
</svg>
