<svg id="图层_1" data-name="图层 1" xmlns="http://www.w3.org/2000/svg" viewBox="0 0 165.81 173.09"><defs><style>.cls-1,.cls-2{fill:#6e7a8e;}.cls-1{stroke:#6e7a8e;stroke-miterlimit:10;stroke-width:0.5px;}</style></defs><title>Contracts</title><path class="cls-1" d="M47.77,13.71h97.77c18.65,0,33.77,13.59,33.77,30.36V155.93c0,16.77-15.12,30.36-33.77,30.36H47.77C29.12,186.29,14,172.7,14,155.93V44.07C14,27.3,29.12,13.71,47.77,13.71Zm0,12.78c-10.8,0-19.55,7.87-19.55,17.58h0V155.93c0,9.71,8.75,17.58,19.55,17.58h97.77c10.79,0,19.55-7.87,19.55-17.58V44.07c0-9.71-8.76-17.58-19.55-17.58Z" transform="translate(-13.75 -13.46)"/><path class="cls-2" d="M64,78.43h40a6.4,6.4,0,0,0,0-12.79H64a6.4,6.4,0,0,0,0,12.79Zm0,32H136a6.4,6.4,0,0,0,0-12.79H64a6.4,6.4,0,0,0,0,12.79Zm0,32H136a6.4,6.4,0,0,0,0-12.79H64a6.4,6.4,0,0,0,0,12.79Z" transform="translate(-13.75 -13.46)"/></svg>