<svg id="图层_1" data-name="图层 1" xmlns="http://www.w3.org/2000/svg" viewBox="0 0 107.45 21"><defs><style>.cls-1{fill:#464f67;}</style></defs><title>未标题-r2</title><polygon class="cls-1" points="33.89 5.87 31.48 13.43 29.18 5.87 26.57 5.87 30.02 16.5 32.73 16.5 34.78 9.64 36.91 16.5 39.64 16.5 43.06 5.87 40.47 5.87 38.18 13.4 35.74 5.87 33.89 5.87"/><path class="cls-1" d="M55.15,8.86a3,3,0,0,0-2.43,1.25l-.25.39V6.87H50.09V17.5h2.4V12.64A1.71,1.71,0,0,1,54.19,11c1.35,0,1.51.88,1.51,1.55v5h2.46V11.63A2.87,2.87,0,0,0,55.15,8.86Z" transform="translate(-6.08 -1)"/><path class="cls-1" d="M59.39,13.31c0,2.68,1.56,4.41,4,4.41a3.58,3.58,0,0,0,2.52-1l.24-.27V17.5H68.5V9H66.16V10.1l-.23-.21a3.26,3.26,0,0,0-2.43-1A4.29,4.29,0,0,0,59.39,13.31Zm6.85,0a2.24,2.24,0,0,1-2.3,2.27,2.17,2.17,0,0,1-2.13-2.35A2.15,2.15,0,0,1,64,11,2.19,2.19,0,0,1,66.24,13.34Z" transform="translate(-6.08 -1)"/><polygon class="cls-1" points="66.79 5.87 64.41 5.87 64.41 8.03 63.54 8.03 63.54 10.16 64.41 10.16 64.41 16.5 66.79 16.5 66.79 10.18 68.2 10.18 68.2 8.03 66.79 8.03 66.79 5.87"/><path class="cls-1" d="M77,11.37c0-.41.32-.67.84-.67a1.35,1.35,0,0,1,1.14.64l1.76-.78A2.93,2.93,0,0,0,78,8.86c-1.89,0-3.21,1.12-3.21,2.71,0,1.83,1.44,2.29,2.6,2.66.71.23,1.32.42,1.32.93s-.56.75-1.08.75a1.63,1.63,0,0,1-1.27-.73l-1.8.91a3.18,3.18,0,0,0,3,1.63c1.62,0,3.37-.87,3.37-2.77s-1.51-2.29-2.72-2.69C77.55,12,77,11.83,77,11.37Z" transform="translate(-6.08 -1)"/><path class="cls-1" d="M74.56,11.38s0,.05,0,.08h0Z" transform="translate(-6.08 -1)"/><path class="cls-1" d="M81.81,12.28a5.42,5.42,0,0,0,5.57,5.5A5.79,5.79,0,0,0,90,17.11V14.59a4.38,4.38,0,0,1-2.43.78,3,3,0,0,1-3.16-3.06c0-2,1.18-3.34,3-3.34a4,4,0,0,1,2.6.81V7.18a5.17,5.17,0,0,0-2.74-.63A5.42,5.42,0,0,0,81.81,12.28Z" transform="translate(-6.08 -1)"/><path class="cls-1" d="M95.59,8.86a4.45,4.45,0,0,0-4.65,4.45,4.6,4.6,0,0,0,4.59,4.49,4.39,4.39,0,0,0,4.63-4.53A4.39,4.39,0,0,0,95.59,8.86Zm0,6.71a2.25,2.25,0,1,1,0-4.49,2.14,2.14,0,0,1,2.23,2.15A2.13,2.13,0,0,1,95.56,15.57Z" transform="translate(-6.08 -1)"/><path class="cls-1" d="M102.57,5.2a1.47,1.47,0,0,0-1.46,1.47,1.43,1.43,0,0,0,1.43,1.46A1.49,1.49,0,0,0,104,6.64,1.46,1.46,0,0,0,102.57,5.2Z" transform="translate(-6.08 -1)"/><rect class="cls-1" x="95.29" y="8.03" width="2.37" height="8.47"/><path class="cls-1" d="M110.52,8.86a3,3,0,0,0-2.43,1.25l-.25.4V9h-2.37V17.5h2.4V12.64A1.71,1.71,0,0,1,109.57,11c1.35,0,1.51.88,1.51,1.55v5h2.46V11.63A2.87,2.87,0,0,0,110.52,8.86Z" transform="translate(-6.08 -1)"/><path class="cls-1" d="M22.59,18a8.84,8.84,0,1,1,0-13A.83.83,0,1,0,23.72,3.8a10.5,10.5,0,1,0,0,15.41A.83.83,0,0,0,22.59,18Z" transform="translate(-6.08 -1)"/><path class="cls-1" d="M28.22,7.36a.83.83,0,0,0-1.17,0L22.41,12,19.68,9.25a.83.83,0,0,0-1.17,0l-4.63,4.63-2.73-2.73A.83.83,0,1,0,10,12.32l3.32,3.32a.83.83,0,0,0,1.17,0L19.09,11l2.74,2.74a.83.83,0,0,0,1.17,0l5.22-5.22A.83.83,0,0,0,28.22,7.36Z" transform="translate(-6.08 -1)"/></svg>