<?xml version="1.0" encoding="UTF-8"?>
<svg width="16px" height="16px" viewBox="0 0 16 16" version="1.1" xmlns="http://www.w3.org/2000/svg" xmlns:xlink="http://www.w3.org/1999/xlink">
    <!-- Generator: Sketch 63 (92445) - https://sketch.com -->
    <title>形状</title>
    <desc>Created with Sketch.</desc>
    <g id="页面-1" stroke="none" stroke-width="1" fill="none" fill-rule="evenodd">
        <g id="dashboard-vs" transform="translate(0.500000, 0.500000)" fill="#1677FE" fill-rule="nonzero">
            <path d="M6.66666666,0.83333334 L6.66666666,14.1666667 C6.66666666,14.6269039 6.29357063,15 5.83333334,15 L0.83333334,15 C0.373096045,15 0,14.626904 0,14.1666667 L0,0.83333334 C0,0.373096045 0.373096045,0 0.83333334,0 L5.83333334,0 C6.29357063,0 6.66666666,0.373096052 6.66666666,0.83333334 L6.66666666,0.83333334 Z M9.16666666,5 L14.1666667,5 C14.626904,5 15,4.62690396 15,4.16666666 L15,0.83333334 C15,0.373096045 14.626904,0 14.1666667,0 L9.16666666,0 C8.70642937,0 8.33333334,0.373096052 8.33333334,0.83333334 L8.33333334,4.16666666 C8.33333334,4.62690395 8.70642937,5 9.16666666,5 L9.16666666,5 Z M9.16666666,15 L14.1666667,15 C14.626904,15 15,14.626904 15,14.1666667 L15,7.5 C15,7.0397627 14.626904,6.66666666 14.1666667,6.66666666 L9.16666666,6.66666666 C8.70642937,6.66666666 8.33333334,7.03976271 8.33333334,7.5 L8.33333334,14.1666667 C8.33333334,14.6269039 8.70642937,15 9.16666666,15 L9.16666666,15 Z" id="形状"></path>
        </g>
    </g>
</svg>