<?xml version="1.0" encoding="utf-8"?>
<!-- Generator: Adobe Illustrator 24.0.1, SVG Export Plug-In . SVG Version: 6.00 Build 0)  -->
<svg version="1.1" id="图层_1" xmlns="http://www.w3.org/2000/svg" xmlns:xlink="http://www.w3.org/1999/xlink" x="0px" y="0px"
	 viewBox="0 0 57.4 48" style="enable-background:new 0 0 57.4 48;" xml:space="preserve">
<style type="text/css">
	.st0{fill:#F37272;}
</style>
<path class="st0" d="M48.5,12.7v26.7c0,4.7-3.8,8.6-8.6,8.6l0,0H18.4c-4.7,0-8.6-3.8-8.6-8.6l0,0V12.7c-1.2,0-2.1-1-2.1-2.2
	c0-1.1,0.9-2,2.1-2.1v0H19c1-5.6,6.4-9.3,12-8.3c4.2,0.8,7.5,4.1,8.3,8.3h9.2v0c1.2,0,2.1,1,2.1,2.2C50.5,11.8,49.6,12.7,48.5,12.7z
	 M29.1,4.2c-2.7,0-5,1.7-5.8,4.2H35C34.1,6,31.8,4.3,29.1,4.2z M44.3,12.7H13.9v25.9c0,2.8,2.3,5.1,5.1,5.1l0,0h20.1
	c2.8,0,5.1-2.3,5.1-5.1l0,0V12.7L44.3,12.7z M34,35.3c-1.1,0-2.1-0.9-2.1-2.1v-10c0-1.1,0.9-2.1,2.1-2.1c1.1,0,2.1,0.9,2.1,2.1l0,0
	v10C36.1,34.4,35.1,35.3,34,35.3L34,35.3z M24.3,35.3c-1.1,0-2.1-0.9-2.1-2.1v-10c0-1.1,0.9-2.1,2.1-2.1s2.1,0.9,2.1,2.1l0,0v10
	C26.4,34.4,25.4,35.3,24.3,35.3L24.3,35.3z"/>
</svg>
