<svg id="图层_1" data-name="图层 1" xmlns="http://www.w3.org/2000/svg" viewBox="0 0 48.01 47.99"><defs><style>.cls-1{fill:#6F7B8F;}</style></defs><title>document</title><path class="cls-1" d="M12.78,20.89h4.49a2,2,0,0,1,2.25,1.71,2.44,2.44,0,0,1,0,.54h0a2,2,0,0,1-1.71,2.25,2.44,2.44,0,0,1-.54,0H12.78a2,2,0,0,1-2.25-1.71,2.44,2.44,0,0,1,0-.54h0a2,2,0,0,1,1.71-2.25A2.44,2.44,0,0,1,12.78,20.89Z" transform="translate(0 -0.01)"/><path class="cls-1" d="M12.66,31.39H35.15a2,2,0,0,1,2.25,1.72,2.26,2.26,0,0,1,0,.52h0a2,2,0,0,1-1.71,2.25,2.44,2.44,0,0,1-.54,0H12.66a2,2,0,0,1-2.25-1.71,2.44,2.44,0,0,1,0-.54h0a2,2,0,0,1,1.73-2.24A2.26,2.26,0,0,1,12.66,31.39Z" transform="translate(0 -0.01)"/><path class="cls-1" d="M12.78,10.39h4.49a2,2,0,0,1,2.25,1.71,2.44,2.44,0,0,1,0,.54h0a2,2,0,0,1-1.71,2.25,2.44,2.44,0,0,1-.54,0H12.78a2,2,0,0,1-2.25-1.71,2.44,2.44,0,0,1,0-.54h0a2,2,0,0,1,1.71-2.25A2.44,2.44,0,0,1,12.78,10.39Z" transform="translate(0 -0.01)"/><path class="cls-1" d="M47.54,4.69,31.64,20.62,24.77,24a.6.6,0,0,1-.78-.34.66.66,0,0,1,0-.44l3.42-6.87L43.31.46a1.51,1.51,0,0,1,2.12,0h0l2.1,2.13a1.46,1.46,0,0,1,.06,2Z" transform="translate(0 -0.01)"/><path class="cls-1" d="M48,42V26.5a2.19,2.19,0,0,0-4.37-.3,1.5,1.5,0,0,0,0,.3V40.62a3,3,0,0,1-3,3H7.38a3,3,0,0,1-3-3V7.36a3,3,0,0,1,3-3H22.79A2.18,2.18,0,0,0,23.21,0H6A6,6,0,0,0,0,6H0V42a6,6,0,0,0,6,6H42A6,6,0,0,0,48,42Z" transform="translate(0 -0.01)"/></svg>