<svg id="图层_1" data-name="图层 1" xmlns="http://www.w3.org/2000/svg" viewBox="0 0 34.79 30.96"><defs><style>.cls-1{fill:#6e7a8e;stroke:#6e7a8e;stroke-miterlimit:10;}</style></defs><title>下载</title><path class="cls-1" d="M33.65,19.27a1.06,1.06,0,0,0-1.12,1v8.63H3.25V20.26a1.07,1.07,0,0,0-1.13-1,1.07,1.07,0,0,0-1.13,1V30a1.08,1.08,0,0,0,1.13,1H33.65a1.07,1.07,0,0,0,1.13-1v-9.7A1.06,1.06,0,0,0,33.65,19.27Z" transform="translate(-0.49 -0.5)"/><path class="cls-1" d="M17.1,24.19a1.23,1.23,0,0,0,1.59,0h0l5-4.45a.92.92,0,0,0,0-1.41,1.24,1.24,0,0,0-1.6,0L19,21.08V2a1.13,1.13,0,0,0-2.25,0V21.08l-3.11-2.73a1.24,1.24,0,0,0-1.6,0,.92.92,0,0,0,0,1.41Z" transform="translate(-0.49 -0.5)"/></svg>