<svg id="图层_1" data-name="图层 1" xmlns="http://www.w3.org/2000/svg" viewBox="0 0 16.25 12.92"><defs><style>.cls-1{fill:#fff;}</style></defs><title>邮箱</title><path class="cls-1" d="M4,16.46a2.12,2.12,0,0,1-2.12-2.13V5.67A2.12,2.12,0,0,1,4,3.54H16a2.12,2.12,0,0,1,2.12,2.13v8.66A2.12,2.12,0,0,1,16,16.46Zm0-1.25H16a.88.88,0,0,0,.88-.88V5.67A.88.88,0,0,0,16,4.79H4a.88.88,0,0,0-.88.88v8.66A.88.88,0,0,0,4,15.21Z" transform="translate(-1.88 -3.54)"/><path class="cls-1" d="M2.73,7.56a.62.62,0,1,1,.54-1.12l6.57,3.2a.36.36,0,0,0,.32,0l6.57-3.2a.62.62,0,0,1,.54,1.12h0l-6.56,3.2a1.61,1.61,0,0,1-1.42,0Z" transform="translate(-1.88 -3.54)"/></svg>