<svg id="图层_1" data-name="图层 1" xmlns="http://www.w3.org/2000/svg" viewBox="0 0 42 36.56"><defs><style>.cls-1{fill:#1677FE;}</style></defs><title>feedback</title><path class="cls-1" d="M19.12,0h3.76V18H19.12Z" transform="translate(0 0.01)"/><path class="cls-1" d="M19.12,22.88A1.88,1.88,0,1,0,21,21h0A1.88,1.88,0,0,0,19.12,22.88Z" transform="translate(0 0.01)"/><path class="cls-1" d="M38.72,0H31.88a1.88,1.88,0,0,0-.27,3.75h4.77a1.87,1.87,0,0,1,1.87,1.87v19.5A1.89,1.89,0,0,1,36.38,27h-9a3.27,3.27,0,0,0-2.32,1l-2.79,2.79L21,32.06l-1.31-1.31-1.87-1.87L16.9,28a3.27,3.27,0,0,0-2.32-1h-9a1.89,1.89,0,0,1-1.87-1.88V5.62A1.87,1.87,0,0,1,5.58,3.75h4.54A1.88,1.88,0,1,0,10.39,0H3.28A3.28,3.28,0,0,0,0,3.28V27.47a3.28,3.28,0,0,0,3.28,3.28H14.39L19.67,36a1.87,1.87,0,0,0,2.64,0l0,0,5.28-5.28H38.72A3.28,3.28,0,0,0,42,27.47h0V3.28A3.28,3.28,0,0,0,38.72,0Z" transform="translate(0 0.01)"/></svg>