<svg id="图层_1" data-name="图层 1" xmlns="http://www.w3.org/2000/svg" viewBox="0 0 22.16 26.61"><defs><style>.cls-1{fill:#6e7a8e;stroke:#6e7a8e;stroke-miterlimit:10;stroke-width:0.25px;}</style></defs><title>过滤</title><path class="cls-1" d="M14.32,13.73a2.71,2.71,0,0,1,.59-1.68L20.8,4.69a.61.61,0,0,0,.13-.39V3.23a.61.61,0,0,0-.62-.62H3.78a.62.62,0,0,0-.62.62V4.3a.68.68,0,0,0,.13.39l5.89,7.36a2.65,2.65,0,0,1,.59,1.68v8.32a.62.62,0,0,0,.35.55l4.2,2.1v-11ZM3.78.54H20.31A2.69,2.69,0,0,1,23,3.23V4.3A2.71,2.71,0,0,1,22.41,6l-5.89,7.36a.61.61,0,0,0-.13.39V25a1.86,1.86,0,0,1-1.86,1.86,1.89,1.89,0,0,1-.84-.2l-4.5-2.25a2.7,2.7,0,0,1-1.49-2.4V13.73a.61.61,0,0,0-.13-.39L1.68,6A2.71,2.71,0,0,1,1.09,4.3V3.23A2.68,2.68,0,0,1,3.78.54Z" transform="translate(-0.96 -0.42)"/></svg>