<svg id="图层_1" data-name="图层 1" xmlns="http://www.w3.org/2000/svg" viewBox="0 0 40.02 32"><defs><style>.cls-1{fill:#6e7a8e;}</style></defs><title>forbes-list-active2</title><path class="cls-1" d="M10,0a2,2,0,0,1,2,2V4.11c4.59.58,7.56,3.28,7.61,6.85h-5C14.5,9.4,13,8,10.12,8,7.53,8,5.93,9,5.93,10.73c0,1.32,1.18,2.17,3.43,2.58l3.83.76c3.69.69,6.81,2.33,6.81,6.58,0,4-3,6.69-8,7.26V30a2,2,0,0,1-4,0V27.91c-5.94-.6-7.93-4-8-7H5.15C5.3,22.53,7,24,10.18,24c3,0,4.56-1.18,4.56-2.89,0-1.54-1.29-2.27-3.84-2.78l-3.79-.76c-3.54-.69-6.5-2.52-6.5-6.48S3.74,4.72,8,4.09V2A2,2,0,0,1,10,0ZM38,22a2,2,0,0,1,0,4H26a2,2,0,1,1,0-4Zm0-8a2,2,0,0,1,0,4H26a2,2,0,1,1,0-4Zm0-8a2,2,0,0,1,0,4H26a2,2,0,1,1,0-4Z" transform="translate(0)"/></svg>