<?xml version="1.0" encoding="UTF-8"?>
<svg width="20px" height="20px" viewBox="0 0 20 20" version="1.1" xmlns="http://www.w3.org/2000/svg" xmlns:xlink="http://www.w3.org/1999/xlink">
    <!-- Generator: Sketch 63 (92445) - https://sketch.com -->
    <title>语言 (1)</title>
    <desc>Created with Sketch.</desc>
    <g id="页面-1" stroke="none" stroke-width="1" fill="none" fill-rule="evenodd">
        <g id="语言-(1)" fill="#FFFFFF" fill-rule="nonzero">
            <path d="M10,0 C15.5229167,0 20,4.47708334 20,10 C20,15.5229167 15.5229167,20 10,20 C4.47708334,20 0,15.5229167 0,10 C0,4.47708334 4.47708334,0 10,0 Z M13.3154167,10.8333333 L6.68458334,10.8333333 C6.86875,15.0870833 8.43875,18.3333333 10,18.3333333 C11.5608333,18.3333333 13.13125,15.0870833 13.3154167,10.8333333 Z M5.01625,10.8333333 L1.70791666,10.83375 C2.01375,13.91125 3.99375,16.49625 6.72458334,17.665 C5.7425,15.9904167 5.12166668,13.5566667 5.01625,10.83375 L5.01625,10.8333333 Z M18.2920833,10.83375 L14.98375,10.83375 C14.8783333,13.5570833 14.2575,15.9904167 13.2754167,17.6645833 C16.00625,16.4966667 17.98625,13.91125 18.2920833,10.83375 L18.2920833,10.83375 Z M6.725,2.33541666 L6.6325,2.37541666 C3.94875,3.56208334 2.01,6.12375 1.70833334,9.16666666 L5.01666666,9.16666666 C5.12208332,6.44333332 5.74291666,4.00958332 6.725,2.33541666 Z M10,1.66666666 L9.9375,1.66833334 C8.3975,1.75333334 6.86666666,4.97 6.68458334,9.16666666 L13.3154167,9.16666666 C13.13125,4.91333334 11.56125,1.66666666 10,1.66666666 Z M13.2754167,2.335 L13.3366667,2.44125 C14.2833333,4.11125 14.8804167,6.5 14.9833333,9.16666666 L18.2916667,9.16666666 C17.98625,6.08875 16.0058333,3.50375 13.275,2.335 L13.2754167,2.335 Z" id="形状"></path>
        </g>
    </g>
</svg>