<svg id="图层_1" data-name="图层 1" xmlns="http://www.w3.org/2000/svg" viewBox="0 0 107.45 21"><defs><style>.cls-1{fill:#ccd0d6;}</style></defs><title>1111</title><polygon class="cls-1" points="33.88 5.87 31.47 13.43 29.17 5.87 26.56 5.87 30.01 16.5 32.72 16.5 34.77 9.63 36.9 16.5 39.63 16.5 43.05 5.87 40.46 5.87 38.17 13.39 35.73 5.87 33.88 5.87"/><path class="cls-1" d="M49.07,7.86a3,3,0,0,0-2.43,1.25l-.25.39V5.87H44V16.5h2.4V11.64A1.71,1.71,0,0,1,48.11,10c1.35,0,1.51.88,1.51,1.55v5h2.46V10.63a2.87,2.87,0,0,0-3-2.77Z" transform="translate(-0.01 0)"/><path class="cls-1" d="M53.31,12.31c0,2.68,1.56,4.41,4,4.41a3.58,3.58,0,0,0,2.52-1l.24-.27v1h2.35V8H60.08V9.1l-.23-.21a3.26,3.26,0,0,0-2.43-1A4.29,4.29,0,0,0,53.31,12.31Zm6.85,0A2.24,2.24,0,0,1,58,14.58h-.09a2.17,2.17,0,0,1-2.14-2.2s0-.1,0-.15A2.15,2.15,0,0,1,57.8,10h.12a2.19,2.19,0,0,1,2.24,2.13q0,.1,0,.21Z" transform="translate(-0.01 0)"/><polygon class="cls-1" points="66.78 5.87 64.4 5.87 64.4 8.03 63.53 8.03 63.53 10.15 64.4 10.15 64.4 16.5 66.78 16.5 66.78 10.18 68.19 10.18 68.19 8.03 66.78 8.03 66.78 5.87"/><path class="cls-1" d="M70.92,10.37c0-.41.32-.67.84-.67a1.35,1.35,0,0,1,1.14.64l1.76-.78a2.93,2.93,0,0,0-2.74-1.7C70,7.86,68.71,9,68.71,10.57c0,1.83,1.44,2.29,2.6,2.66.71.23,1.32.42,1.32.93s-.56.75-1.08.75a1.63,1.63,0,0,1-1.27-.73l-1.8.91a3.18,3.18,0,0,0,3,1.63c1.62,0,3.37-.87,3.37-2.77s-1.51-2.29-2.72-2.69C71.47,11,70.92,10.83,70.92,10.37Z" transform="translate(-0.01 0)"/><path class="cls-1" d="M68.48,10.38v.08h0Z" transform="translate(-0.01 0)"/><path class="cls-1" d="M75.73,11.28a5.42,5.42,0,0,0,5.34,5.5h.23a5.79,5.79,0,0,0,2.62-.67V13.59a4.38,4.38,0,0,1-2.43.78,3,3,0,0,1-3.16-2.84q0-.11,0-.23c0-2,1.18-3.34,3-3.34a4,4,0,0,1,2.6.81V6.18a5.17,5.17,0,0,0-2.74-.63,5.42,5.42,0,0,0-5.47,5.37Q75.72,11.1,75.73,11.28Z" transform="translate(-0.01 0)"/><path class="cls-1" d="M89.51,7.86a4.45,4.45,0,0,0-4.65,4.25q0,.1,0,.2a4.6,4.6,0,0,0,4.59,4.49,4.39,4.39,0,0,0,4.63-4.14q0-.19,0-.39a4.39,4.39,0,0,0-4.37-4.41Zm0,6.71a2.25,2.25,0,1,1-.3-4.49h.3a2.14,2.14,0,0,1,2.23,2s0,.07,0,.1a2.13,2.13,0,0,1-1.9,2.33h-.33Z" transform="translate(-0.01 0)"/><path class="cls-1" d="M96.49,4.2A1.47,1.47,0,0,0,95,5.67a1.43,1.43,0,0,0,1.4,1.46h0a1.49,1.49,0,0,0,1.46-1.49A1.46,1.46,0,0,0,96.49,4.2Z" transform="translate(-0.01 0)"/><rect class="cls-1" x="95.28" y="8.03" width="2.37" height="8.47"/><path class="cls-1" d="M104.44,7.86A3,3,0,0,0,102,9.11l-.25.4V8H99.39v8.5h2.4V11.64a1.71,1.71,0,0,1,1.7-1.64c1.35,0,1.51.88,1.51,1.55v5h2.46V10.63a2.87,2.87,0,0,0-3-2.77Z" transform="translate(-0.01 0)"/><path class="cls-1" d="M16.51,17a8.84,8.84,0,1,1,0-13,.83.83,0,1,0,1.13-1.2,10.5,10.5,0,1,0,0,15.41A.83.83,0,0,0,16.51,17Z" transform="translate(-0.01 0)"/><path class="cls-1" d="M22.14,6.36a.83.83,0,0,0-1.17,0L16.33,11,13.6,8.25a.83.83,0,0,0-1.17,0L7.8,12.88,5.07,10.15a.83.83,0,1,0-1.15,1.17l3.32,3.32a.83.83,0,0,0,1.17,0L13,10l2.74,2.74a.83.83,0,0,0,1.17,0l5.22-5.22A.83.83,0,0,0,22.14,6.36Z" transform="translate(-0.01 0)"/></svg>