<svg id="图层_1" data-name="图层 1" xmlns="http://www.w3.org/2000/svg" viewBox="0 0 40 40"><defs><style>.cls-1{fill:#20242f;}.cls-2{fill:#464f67;}</style></defs><title>20242f ogo</title><circle class="cls-1" cx="20" cy="20" r="20"/><path class="cls-2" d="M25.58,26a8.84,8.84,0,1,1,0-13,.83.83,0,1,0,1.13-1.22,10.5,10.5,0,1,0,0,15.41A.83.83,0,0,0,25.58,26Z" transform="translate(0 0)"/><path class="cls-2" d="M31.21,15.36a.83.83,0,0,0-1.17,0L25.4,20l-2.73-2.74a.83.83,0,0,0-1.17,0l-4.63,4.63-2.73-2.73A.83.83,0,0,0,13,20.32l3.32,3.32a.83.83,0,0,0,1.17,0L22.08,19l2.74,2.74a.83.83,0,0,0,1.17,0l5.22-5.22A.83.83,0,0,0,31.21,15.36Z" transform="translate(0 0)"/></svg>