<svg id="图层_1" data-name="图层 1" xmlns="http://www.w3.org/2000/svg" viewBox="0 0 511.67 100"><defs><style>.cls-1{fill:#fff;}</style></defs><title>白色2WhatsCion LOGO （第三版-改进稿）（20210922）-11 2</title><polygon class="cls-1" points="161.38 27.94 149.89 63.95 138.97 27.94 126.53 27.94 142.93 78.58 155.86 78.58 165.63 45.91 175.76 78.58 188.77 78.58 205.03 27.94 192.72 27.94 181.81 63.79 170.18 27.94 161.38 27.94"/><path class="cls-1" d="M243.64,42.93a14.48,14.48,0,0,0-11.59,5.94l-1.21,1.88V33.44h-11.3V84.08H231V60.93a8.16,8.16,0,0,1,8.12-8c6.43,0,7.17,4.21,7.17,7.37V84.08H258v-28C258,48.72,251.67,42.93,243.64,42.93Z" transform="translate(-9.97 -5.5)"/><path class="cls-1" d="M263.83,64.11c0,12.74,7.41,21,18.88,21a17,17,0,0,0,12-4.87l1.15-1.29v5.14h11.37V43.75H296.06v5.1l-1.1-1c-3.42-3.11-6.41-4.92-11.56-4.92C272.61,42.93,263.83,52.43,263.83,64.11Zm32.63.14a10.66,10.66,0,0,1-11,10.83c-5.88,0-10.16-4.7-10.16-11.17a10.25,10.25,0,0,1,10.56-10.63C292,53.28,296.46,57.89,296.46,64.25Z" transform="translate(-9.97 -5.5)"/><polygon class="cls-1" points="318.06 27.94 306.69 27.94 306.69 38.25 302.56 38.25 302.56 48.39 306.69 48.39 306.69 78.58 318.06 78.58 318.06 48.46 324.77 48.46 324.77 38.25 318.06 38.25 318.06 27.94"/><path class="cls-1" d="M347.55,54.89c0-2,1.53-3.17,4-3.17A6.43,6.43,0,0,1,357,54.79l8.4-3.7a14,14,0,0,0-12.75-8.17c-9,0-15.28,5.31-15.28,12.91,0,8.72,6.85,10.91,12.36,12.68,3.37,1.08,6.29,2,6.29,4.41s-2.65,3.57-5.13,3.57A7.76,7.76,0,0,1,344.8,73l-8.56,4.31c3,5.28,7.66,7.74,14.49,7.74,7.72,0,16-4.12,16-13.18,0-8.58-7.18-10.92-12.95-12.8C350.3,58,347.55,57.07,347.55,54.89Z" transform="translate(-9.97 -5.5)"/><path class="cls-1" d="M336.06,54.92c0,.12,0,.24,0,.36h0Z" transform="translate(-9.97 -5.5)"/><path class="cls-1" d="M370.58,59.23c0,14.94,11.41,26.2,26.54,26.2,5.12,0,8.37-1.42,12.43-3.23v-12A20.86,20.86,0,0,1,398,73.93c-8.71,0-15-6.12-15-14.56,0-9.67,5.64-15.92,14.36-15.92,5.77,0,9.25,1.51,12.36,3.84V34.94c-4.32-2.26-7.55-3-13-3C381.55,31.94,370.58,43.42,370.58,59.23Z" transform="translate(-9.97 -5.5)"/><path class="cls-1" d="M436.22,42.93c-12.62,0-22.13,9.11-22.13,21.18,0,11.59,10,21.39,21.86,21.39,13,0,22.06-8.88,22.06-21.59C458,52,448.65,42.93,436.22,42.93Zm-.13,31.95a10.7,10.7,0,1,1,.06-21.39c6.06,0,10.63,4.39,10.63,10.22C446.79,70.6,442.69,74.88,436.09,74.88Z" transform="translate(-9.97 -5.5)"/><path class="cls-1" d="M469.47,25.5a7,7,0,0,0-6.94,7,6.8,6.8,0,0,0,6.8,6.94,7.11,7.11,0,0,0,7.14-7.07A6.94,6.94,0,0,0,469.47,25.5Z" transform="translate(-9.97 -5.5)"/><rect class="cls-1" x="453.78" y="38.25" width="11.3" height="40.33"/><path class="cls-1" d="M507.31,42.93a14.42,14.42,0,0,0-11.59,5.94l-1.21,1.89v-7h-11.3V84.08h11.43V60.93a8.16,8.16,0,0,1,8.12-8c6.43,0,7.17,4.21,7.17,7.37V84.08h11.71v-28C521.64,48.72,515.34,42.93,507.31,42.93Z" transform="translate(-9.97 -5.5)"/><path class="cls-1" d="M88.58,86.39a42.11,42.11,0,1,1,0-61.78A3.95,3.95,0,1,0,94,18.82a50,50,0,1,0,0,73.36,3.95,3.95,0,1,0-5.37-5.79Z" transform="translate(-9.97 -5.5)"/><path class="cls-1" d="M115.39,35.77a4,4,0,0,0-5.58,0L87.75,57.83l-13-13a4,4,0,0,0-5.58,0L47.08,66.86l-13-13a3.95,3.95,0,0,0-5.58,5.58L44.3,75.24a3.94,3.94,0,0,0,5.58,0L71.94,53.18l13,13a3.94,3.94,0,0,0,5.58,0L115.4,41.36A4,4,0,0,0,115.39,35.77Z" transform="translate(-9.97 -5.5)"/></svg>