<?xml version="1.0" encoding="utf-8"?>
<!-- Generator: Adobe Illustrator 24.0.1, SVG Export Plug-In . SVG Version: 6.00 Build 0)  -->
<svg version="1.1" id="图层_1" xmlns="http://www.w3.org/2000/svg" xmlns:xlink="http://www.w3.org/1999/xlink" x="0px" y="0px"
	 viewBox="0 0 200 200" style="enable-background:new 0 0 200 200;" xml:space="preserve">
<style type="text/css">
	.st0{fill:#FFFFFF;}
	.st1{fill:#11141E;}
</style>
<title>discord (1)</title>
<path class="st0" d="M0,100c0,55.2,44.8,100,100,100s100-44.8,100-100S155.2,0,100,0S0,44.8,0,100z"/>
<path class="st1" d="M37.3,45.8h125.4V139H37.3V45.8z"/>
<path class="st0" d="M136.4,182.1L30.7,168.5c-11.4-1.5-10.8-37.3-9.8-48.8l5.1-58c1-11.5,14.5-23.5,25.9-25.1L143,23.9
	c11.4-1.6,34.6,41.5,34.4,53l-1.7,86.9 M100,58.7c-13.3,0-26.3,3.3-38,9.6c8.6-7.7,23.6-12.1,23.6-12.1l-1.4-1.4
	c-14.1,0.2-26.8,10-26.8,10C43,94.7,43.9,120.5,43.9,120.5c7,8.9,17.7,14.1,29,14l5.9-7.5c-10.4-2.2-17-11.5-17-11.5
	c23.5,14.2,52.9,14.2,76.3,0c0,0-6.6,9.2-17,11.5l5.9,7.5c11.3,0.1,22-5.1,29-14c0,0,0.9-25.8-13.4-55.8c0,0-12.8-9.8-26.8-10
	l-1.4,1.4c0,0,15,4.4,23.6,12.1C126.3,61.9,113.3,58.6,100,58.7 M82.8,90.2c5.4,0,9.8,4.8,9.8,10.6s-4.3,10.6-9.8,10.6
	s-9.7-4.8-9.7-10.6S77.3,90.2,82.8,90.2 M117.5,90.2c5.4,0,9.8,4.8,9.8,10.6s-4.3,10.6-9.8,10.6s-9.7-4.8-9.7-10.6
	S112.1,90.2,117.5,90.2z"/>
</svg>
