<svg id="图层_1" data-name="图层 1" xmlns="http://www.w3.org/2000/svg" viewBox="0 0 200 200"><defs><style>.cls-1{fill:#6e7a8e;}.cls-2{fill:#191c28;}</style></defs><title>discord (1)</title><path class="cls-1" d="M0,100A100,100,0,1,0,100,0,100,100,0,0,0,0,100Z"/><path class="cls-2" d="M37.29,45.76H162.71V139H37.29Z"/><path class="cls-1" d="M136.36,182.08,30.72,168.53c-11.41-1.47-10.82-37.34-9.82-48.8l5.09-58C27,50.21,40.51,38.19,51.91,36.6L143,23.89c11.39-1.59,34.62,41.54,34.39,53l-1.69,86.93M100,58.67a79.12,79.12,0,0,0-38,9.58c8.58-7.67,23.58-12.08,23.58-12.08l-1.41-1.42c-14.09.25-26.84,10-26.84,10C43,94.67,43.92,120.5,43.92,120.5a36.37,36.37,0,0,0,29,14l5.91-7.5c-10.41-2.25-17-11.5-17-11.5a73.61,73.61,0,0,0,76.34,0s-6.59,9.25-17,11.5l5.91,7.5a36.37,36.37,0,0,0,29-14s.92-25.83-13.41-55.75c0,0-12.75-9.75-26.84-10l-1.41,1.42s15,4.41,23.58,12.08a79.12,79.12,0,0,0-38-9.58M82.75,90.25c5.42,0,9.83,4.75,9.75,10.58s-4.33,10.59-9.75,10.59-9.67-4.84-9.67-10.59,4.25-10.58,9.67-10.58m34.75,0c5.42,0,9.75,4.75,9.75,10.58s-4.33,10.59-9.75,10.59-9.67-4.84-9.67-10.59S112.08,90.25,117.5,90.25Z"/></svg>