<svg id="图层_1" data-name="图层 1" xmlns="http://www.w3.org/2000/svg" viewBox="0 0 38.35 39.35"><defs><style>.cls-1{fill:#6e7a8e;stroke:#626d80;stroke-miterlimit:10;stroke-width:0.75px;}</style></defs><title>NFT Item profiler</title><path class="cls-1" d="M19,21.2H9A3.86,3.86,0,0,0,5.2,25V39A3.8,3.8,0,0,0,9,42.8H19a3.78,3.78,0,0,0,3.8-3.7h0V25A3.8,3.8,0,0,0,19,21.2ZM9,24.8H19a.22.22,0,0,1,.2.2V39a.22.22,0,0,1-.2.2H9a.22.22,0,0,1-.2-.2V25A.22.22,0,0,1,9,24.8ZM19,4.2H9A3.8,3.8,0,0,0,5.2,8h0v7A3.8,3.8,0,0,0,9,18.8H19a3.78,3.78,0,0,0,3.8-3.7h0V8A3.8,3.8,0,0,0,19,4.2ZM9,7.8H19a.22.22,0,0,1,.2.2h0v7a.22.22,0,0,1-.2.2H9a.22.22,0,0,1-.2-.2h0V8A.22.22,0,0,1,9,7.8ZM39,4.2H29a3.78,3.78,0,0,0-3.8,3.7h0v14A3.8,3.8,0,0,0,29,25.7H39a3.8,3.8,0,0,0,3.8-3.8V8A3.8,3.8,0,0,0,39,4.2ZM29,7.8H39a.22.22,0,0,1,.2.2V22a.22.22,0,0,1-.2.2H29a.22.22,0,0,1-.2-.2V8A.22.22,0,0,1,29,7.8ZM39,28.2H29A3.8,3.8,0,0,0,25.2,32v7A3.8,3.8,0,0,0,29,42.8H39A3.8,3.8,0,0,0,42.8,39V32A3.8,3.8,0,0,0,39,28.2ZM29,31.8H39a.22.22,0,0,1,.2.2v7a.22.22,0,0,1-.2.2H29a.22.22,0,0,1-.2-.2V32A.22.22,0,0,1,29,31.8Z" transform="translate(-4.82 -3.82)"/></svg>