<svg id="图层_1" data-name="图层 1" xmlns="http://www.w3.org/2000/svg" viewBox="0 0 37.5 38.5"><defs><style>.cls-1{fill:#1677fe;}</style></defs><title>NFT Item profiler蓝色</title><path class="cls-1" d="M13.75,17h-10A3.75,3.75,0,0,0,0,20.75H0v14A3.75,3.75,0,0,0,3.75,38.5h10a3.75,3.75,0,0,0,3.75-3.75h0v-14A3.75,3.75,0,0,0,13.75,17Zm-10,3.5h10a.25.25,0,0,1,.25.25v14a.25.25,0,0,1-.25.25h-10a.25.25,0,0,1-.25-.25v-14A.25.25,0,0,1,3.75,20.5ZM13.75,0h-10A3.75,3.75,0,0,0,0,3.75H0v7A3.75,3.75,0,0,0,3.75,14.5h10a3.75,3.75,0,0,0,3.75-3.75h0v-7A3.75,3.75,0,0,0,13.75,0Zm-10,3.5h10a.25.25,0,0,1,.25.25h0v7a.25.25,0,0,1-.25.25h-10a.25.25,0,0,1-.25-.25h0v-7A.25.25,0,0,1,3.75,3.5Zm30-3.5h-10A3.75,3.75,0,0,0,20,3.75h0v14a3.75,3.75,0,0,0,3.75,3.75h10a3.75,3.75,0,0,0,3.75-3.75h0v-14A3.75,3.75,0,0,0,33.75,0Zm-10,3.5h10a.25.25,0,0,1,.25.25v14a.25.25,0,0,1-.25.25h-10a.25.25,0,0,1-.25-.25v-14A.25.25,0,0,1,23.75,3.5Zm10,20.5h-10A3.75,3.75,0,0,0,20,27.75h0v7a3.75,3.75,0,0,0,3.75,3.75h10a3.75,3.75,0,0,0,3.75-3.75h0v-7A3.75,3.75,0,0,0,33.75,24Zm-10,3.5h10a.25.25,0,0,1,.25.25v7a.25.25,0,0,1-.25.25h-10a.25.25,0,0,1-.25-.25v-7A.25.25,0,0,1,23.75,27.5Z"/></svg>