<?xml version="1.0" encoding="utf-8"?>
<!-- Generator: Adobe Illustrator 24.0.1, SVG Export Plug-In . SVG Version: 6.00 Build 0)  -->
<svg version="1.1" id="图层_1" xmlns="http://www.w3.org/2000/svg" xmlns:xlink="http://www.w3.org/1999/xlink" x="0px" y="0px"
	 viewBox="0 0 28 28" style="enable-background:new 0 0 28 28;" xml:space="preserve">
<style type="text/css">
	.st0{fill:#F37272;}
</style>
<path class="st0" d="M8.4,9.1l4,4c0.2,0.2,0.2,0.2,0,0.3l-4,4c-0.3,0.4-0.3,0.9-0.2,1.2c0.3,0.7,1.1,0.7,1.6,0.2
	c1.4-1.4,2.8-2.6,4-4c0.2-0.2,0.2-0.2,0.4,0c1.4,1.4,2.8,2.8,4.2,4c0.5,0.5,1.1,0.5,1.6,0c0.4-0.3,0.4-1,0-1.4L18,15.6l-2.1-2.1
	c-0.2-0.2-0.2-0.2,0-0.3c0,0,0-0.2,0.2-0.2l3.7-3.7c0.5-0.5,0.5-1.1,0-1.4c-0.3-0.3-1-0.3-1.4,0l-4,4c-0.2,0.2-0.2,0.2-0.4,0
	l-1.6-1.6L9.8,7.7C9.4,7.4,8.9,7.4,8.6,7.5C8,7.9,7.9,8.6,8.4,9.1z"/>
</svg>
