<svg id="图层_1" data-name="图层 1" xmlns="http://www.w3.org/2000/svg" viewBox="0 0 38 38"><defs><style>.cls-1{fill:#fff;}</style></defs><title>地球</title><path class="cls-1" d="M19,0A19,19,0,1,0,38,19h0A19,19,0,0,0,19,0ZM35.32,17.69H28.17c-.18-5.93-1.55-11-3.67-14.12A16.43,16.43,0,0,1,35.32,17.69ZM19,35.38c-3,0-6.26-6.12-6.55-15.07h13.1C25.25,29.27,22,35.38,19,35.38ZM12.45,17.69C12.74,8.69,16,2.62,19,2.62s6.25,6.12,6.55,15.07Zm1-14.12C11.34,6.74,10,11.76,9.78,17.69H2.71A16.43,16.43,0,0,1,13.49,3.57ZM2.71,20.27H9.85c.18,5.93,1.56,11,3.67,14.12A16.42,16.42,0,0,1,2.71,20.27ZM24.5,34.43c2.12-3.16,3.49-8.16,3.67-14.16h7.15A16.41,16.41,0,0,1,24.5,34.43Z" transform="translate(0)"/></svg>