<svg id="图层_1" data-name="图层 1" xmlns="http://www.w3.org/2000/svg" viewBox="0 0 35.3 37.35"><defs><style>.cls-1{fill:#6e7a8e;}</style></defs><title>刷新</title><path class="cls-1" d="M18.89,38A18.29,18.29,0,1,1,34.33,9.87a1.88,1.88,0,1,1-3.16,2,14.54,14.54,0,1,0,1.12,13.46,1.87,1.87,0,0,1,3.45,1.45A18.27,18.27,0,0,1,18.89,38Z" transform="translate(-0.59 -0.62)"/><path class="cls-1" d="M32.72,12.76H24.37a1.89,1.89,0,1,1,0-3.77h6.48V2.51a1.89,1.89,0,1,1,3.77,0v8.37A1.91,1.91,0,0,1,32.72,12.76Z" transform="translate(-0.59 -0.62)"/></svg>