<?xml version="1.0" standalone="no"?><!DOCTYPE svg PUBLIC "-//W3C//DTD SVG 1.1//EN" "http://www.w3.org/Graphics/SVG/1.1/DTD/svg11.dtd"><svg t="1655173466594" class="icon" viewBox="0 0 1024 1024" version="1.1" xmlns="http://www.w3.org/2000/svg" p-id="15560" xmlns:xlink="http://www.w3.org/1999/xlink" width="48" height="48"><defs><style type="text/css">@font-face { font-family: "feedback-iconfont"; src: url("//at.alicdn.com/t/font_1031158_u69w8yhxdu.woff2?t=1630033759944") format("woff2"), url("//at.alicdn.com/t/font_1031158_u69w8yhxdu.woff?t=1630033759944") format("woff"), url("//at.alicdn.com/t/font_1031158_u69w8yhxdu.ttf?t=1630033759944") format("truetype"); }
</style></defs><path d="M984.919179 320.220275c13.197745 34.094173 5.699026 73.78739-18.896771 100.282862-47.291918 51.091269-47.291918 132.377377 0 185.368321 24.595797 26.495472 32.194498 66.188688 18.896771 100.282861-16.997095 43.492567-41.592892 85.085459-69.988039 121.079308-22.696121 28.395147-60.489662 41.592892-94.583836 34.094173s-68.088364-1.899675-98.383187 15.09742c-30.294823 16.997095-51.091269 45.392243-62.389337 77.586741-11.398052 35.893866-41.592892 60.489662-77.586741 66.188688-22.696121 1.899675-47.291918 3.799351-69.988039 3.799351s-47.291918-1.899675-69.988039-5.699026c-35.893866-5.699026-66.188688-30.294823-77.586741-66.188689-20.796446-68.088364-90.784485-107.78158-160.772524-92.68416-35.893866 7.598701-71.887715-5.699026-94.583836-34.094173-28.395147-37.793541-52.990944-77.586741-69.988039-121.079308-13.197745-34.094173-5.699026-73.78739 18.896771-100.282862 47.291918-51.091269 47.291918-132.377377 0-185.368321-24.595797-26.495472-32.094515-66.188688-18.896771-100.282861 16.997095-43.492567 41.592892-85.085459 69.988039-121.079308 22.696121-28.395147 60.489662-41.592892 96.483511-34.094174 34.094173 7.598701 68.088364 1.899675 98.383187-15.097419 30.294823-16.997095 51.091269-45.392243 62.389338-77.586741 11.398052-35.893866 41.592892-60.489662 77.58674-66.188688 45.392243-5.699026 92.68416-5.699026 139.976079 0 35.893866 5.699026 66.188688 30.294823 77.58674 66.188688 9.498377 32.194498 32.194498 60.489662 62.389338 77.586741 30.294823 16.997095 64.289013 22.696121 98.383186 15.097419 35.893866-7.598701 73.78739 5.699026 94.583836 34.094174 26.495472 39.793199 51.091269 79.486416 68.088364 122.978983z m-69.988039 28.395147c-15.09742-35.893866-35.893866-71.887715-60.489663-102.182537-3.799351-5.699026-11.398052-7.598701-18.89677-5.699026-51.091269 11.398052-105.881905 3.799351-151.374131-22.696121-47.291918-26.495472-81.386091-69.988039-96.483511-121.079308-1.899675-7.598701-7.598701-13.197745-15.09742-13.197745-39.693216-5.699026-79.486416-5.699026-119.179632 0-7.598701 1.899675-13.197745 5.699026-15.09742 13.197745C423.11519 148.049699 389.021017 191.642249 341.729099 218.037738c-45.392243 26.495472-100.282862 34.094173-153.173823 22.696121-7.598701-1.899675-15.09742 1.899675-18.89677 5.699026-24.595797 32.194498-45.392243 66.188688-60.489663 102.182537-1.899675 7.598701-1.899675 15.09742 3.799351 20.796446 73.78739 81.386091 73.78739 206.164767 0 287.550858-5.699026 5.699026-5.699026 13.197745-3.799351 18.896771 15.09742 37.793541 35.893866 71.887715 58.589987 102.182537 3.799351 5.699026 13.197745 7.598701 18.896771 7.598701 107.78158-24.595797 215.663144 39.693216 249.657334 143.775429 1.899675 7.598701 7.598701 11.398052 15.09742 13.197745 18.896771 1.899675 39.693216 3.799351 58.589987 3.79935 20.796446 0 39.693216-1.899675 60.489662-3.79935 7.598701-1.899675 13.197745-5.699026 15.09742-13.197745 15.09742-51.091269 49.191593-94.583836 96.483511-121.079308 45.392243-26.495472 100.282862-34.094173 153.173823-22.696121 7.598701 1.899675 15.09742-1.899675 18.896771-5.699026 24.595797-32.194498 45.392243-66.188688 60.489662-102.182537 1.899675-5.699026 1.899675-15.09742-3.799351-20.796446-73.78739-81.386091-73.78739-206.164767 0-287.550858 5.998975-5.699026 5.998975-13.197745 4.0993-20.796446zM504.401299 702.354969c-104.082213 0-189.167672-85.085459-189.167672-189.167672S400.419069 324.019626 504.401299 324.019626s189.167672 85.085459 189.167671 189.167671-83.185784 189.167672-189.167671 189.167672z m0-75.687066c62.389338 0 113.480606-51.091269 113.480606-113.480606s-51.091269-113.480606-113.480606-113.480606-113.480606 51.091269-113.480607 113.480606S442.011961 626.667903 504.401299 626.667903z" p-id="15561" fill="#6e7a8e"></path></svg>