<svg id="图层_1" data-name="图层 1" xmlns="http://www.w3.org/2000/svg" viewBox="0 0 36.67 36.67"><defs><style>.cls-1{fill:#1677fe;}</style></defs><title>skip</title><path class="cls-1" d="M35.71,42.73H13.51a7.26,7.26,0,0,1-7.24-7.24V13.29a7.26,7.26,0,0,1,7.24-7.24h11.1a1.45,1.45,0,0,1,0,2.9H13.51a4.34,4.34,0,0,0-4.34,4.34v22.2a4.34,4.34,0,0,0,4.34,4.34h22.2a4.34,4.34,0,0,0,4.34-4.34V24.39a1.45,1.45,0,0,1,2.9,0v11.1A7.26,7.26,0,0,1,35.71,42.73Z" transform="translate(-6.27 -6.05)"/><path class="cls-1" d="M24.13,26.32a1.47,1.47,0,0,1-1-.42,1.45,1.45,0,0,1,0-2h0L40.48,6.48a1.44,1.44,0,0,1,2,2L25.15,25.9A1.45,1.45,0,0,1,24.13,26.32Z" transform="translate(-6.27 -6.05)"/><path class="cls-1" d="M41.5,9H33.78a1.45,1.45,0,0,1,0-2.9H41.5a1.45,1.45,0,1,1,0,2.9Z" transform="translate(-6.27 -6.05)"/><path class="cls-1" d="M41.5,16.67a1.45,1.45,0,0,1-1.45-1.45h0V7.5a1.45,1.45,0,0,1,2.9,0v7.72a1.45,1.45,0,0,1-1.45,1.45Z" transform="translate(-6.27 -6.05)"/></svg>