<svg id="图层_1" data-name="图层 1" xmlns="http://www.w3.org/2000/svg" viewBox="0 0 37.67 35.44"><defs><style>.cls-1{fill:#6e7a8e;stroke:#6e7a8e;stroke-miterlimit:10;}</style></defs><title>预警</title><path class="cls-1" d="M34.91,37.55V20.11a11,11,0,0,0-3.27-7.85,11,11,0,0,0-15.64,0,11,11,0,0,0-3.27,7.85l0,17.44h-3l0-17.44a14,14,0,0,1,1.11-5.48,14.16,14.16,0,0,1,7.5-7.49A13.87,13.87,0,0,1,23.85,6a13.59,13.59,0,0,1,5.42,1.12,14.07,14.07,0,0,1,8.61,13V37.54Z" transform="translate(-5.16 -5.52)"/><path class="cls-1" d="M40.84,40.46H7.15A1.49,1.49,0,0,1,5.66,39,1.48,1.48,0,0,1,7.1,37.49H40.79a1.49,1.49,0,1,1,.05,3Z" transform="translate(-5.16 -5.52)"/><path class="cls-1" d="M28.52,23.29H24.74V15.07L19.37,25.16h3.91V33Z" transform="translate(-5.16 -5.52)"/></svg>