<svg id="图层_1" data-name="图层 1" xmlns="http://www.w3.org/2000/svg" viewBox="0 0 37.29 37.23"><defs><style>.cls-1{fill:#1677fe;}</style></defs><title>Smart Money白色</title><path class="cls-1" d="M20.47,16.31,25.8,19.9a.47.47,0,0,0,.28.09h.09a.49.49,0,0,0,.31-.21L27.67,18a.53.53,0,0,0,.07-.37.45.45,0,0,0-.21-.31L24.07,15l3.45-2.3a.45.45,0,0,0,.21-.31.51.51,0,0,0-.07-.36l-1.19-1.78a.44.44,0,0,0-.31-.2h-.09a.54.54,0,0,0-.28.08l-5.32,3.58A1.55,1.55,0,0,0,19.78,15,1.58,1.58,0,0,0,20.47,16.31Zm-8.26-5.37H10.07a.49.49,0,0,0-.49.49v7.16a.49.49,0,0,0,.49.49H12.2a.49.49,0,0,0,.49-.49V11.43A.49.49,0,0,0,12.21,10.94ZM24.86,25.46l-1.15-1.79a.42.42,0,0,0-.31-.22.48.48,0,0,0-.37.07,9.4,9.4,0,0,1-9.39.61.48.48,0,0,0-.65.21h0l-1,1.91a.49.49,0,0,0,.18.63h0a12.53,12.53,0,0,0,12.48-.79A.49.49,0,0,0,24.86,25.46ZM36.58,13.53A18.62,18.62,0,0,0,18.67,0h-.06A18.61,18.61,0,0,0,4.23,30.43h0l1.69,1.8a.5.5,0,0,0,.19.13,18.62,18.62,0,0,0,26.31-1.2c.2-.22.39-.44.58-.67a18.61,18.61,0,0,0,3.58-17ZM33.74,22A15.51,15.51,0,0,1,8.17,30.08L6.57,28.4A15.36,15.36,0,0,1,4,23.82a15.56,15.56,0,0,1-.92-5.06,15.48,15.48,0,0,1,8.8-14.12,15.57,15.57,0,0,1,20.72,7.19A15.17,15.17,0,0,1,34,16.75,15.32,15.32,0,0,1,33.74,22Z" transform="translate(0.01 0)"/></svg>