<svg id="图层_1" data-name="图层 1" xmlns="http://www.w3.org/2000/svg" viewBox="0 0 37.29 37.23"><defs><style>.cls-1{fill:#6e7a8e;}</style></defs><title>Smart Money</title><path class="cls-1" d="M26.4,21.72l5.33,3.59a.47.47,0,0,0,.28.09h.09a.49.49,0,0,0,.31-.21l1.19-1.77a.53.53,0,0,0,.07-.37.47.47,0,0,0-.21-.31L30,20.43l3.45-2.3a.45.45,0,0,0,.21-.31.5.5,0,0,0-.07-.36l-1.19-1.78a.47.47,0,0,0-.31-.2H32a.54.54,0,0,0-.28.08L26.4,19.14a1.55,1.55,0,0,0-.69,1.29A1.58,1.58,0,0,0,26.4,21.72Zm-8.26-5.37H16a.49.49,0,0,0-.49.49V24a.49.49,0,0,0,.49.49h2.13a.49.49,0,0,0,.49-.49V16.84A.49.49,0,0,0,18.14,16.35ZM30.79,30.87l-1.15-1.79a.44.44,0,0,0-.31-.22.47.47,0,0,0-.37.07,9.4,9.4,0,0,1-9.39.61.48.48,0,0,0-.65.22l-1,1.91a.49.49,0,0,0,.18.63l0,0a12.53,12.53,0,0,0,12.48-.79A.49.49,0,0,0,30.79,30.87ZM42.51,18.94a18.65,18.65,0,0,0-6.69-9.77A18.62,18.62,0,0,0,24.6,5.41h-.06A18.61,18.61,0,0,0,10.16,35.84l0,0,1.69,1.8a.5.5,0,0,0,.19.13A18.62,18.62,0,0,0,38.93,35.9,18.61,18.61,0,0,0,43.19,25,18.41,18.41,0,0,0,42.51,18.94Zm-2.84,8.49A15.51,15.51,0,0,1,14.1,35.49l-1.6-1.68a15.24,15.24,0,0,1-2.58-4.58A15.58,15.58,0,0,1,9,24.17a15.33,15.33,0,0,1,.8-5.07,15.56,15.56,0,0,1,2.5-4.64,15.29,15.29,0,0,1,5.5-4.41,15.59,15.59,0,0,1,6.72-1.53,15.56,15.56,0,0,1,11,4.53,15.52,15.52,0,0,1,3,4.19,15.17,15.17,0,0,1,1.45,4.92A15.32,15.32,0,0,1,39.67,27.43Z" transform="translate(-5.93 -5.41)"/></svg>