<?xml version="1.0" standalone="no"?><!DOCTYPE svg PUBLIC "-//W3C//DTD SVG 1.1//EN" "http://www.w3.org/Graphics/SVG/1.1/DTD/svg11.dtd"><svg t="1655195937426" class="icon" viewBox="0 0 1024 1024" version="1.1" xmlns="http://www.w3.org/2000/svg" p-id="31540" xmlns:xlink="http://www.w3.org/1999/xlink" width="48" height="48"><defs><style type="text/css">@font-face { font-family: "feedback-iconfont"; src: url("//at.alicdn.com/t/font_1031158_u69w8yhxdu.woff2?t=1630033759944") format("woff2"), url("//at.alicdn.com/t/font_1031158_u69w8yhxdu.woff?t=1630033759944") format("woff"), url("//at.alicdn.com/t/font_1031158_u69w8yhxdu.ttf?t=1630033759944") format("truetype"); }
</style></defs><path d="M510.438 64.129c-246.87 0-446.998 200.128-446.998 446.998s200.128 446.998 446.998 446.998 446.998-200.128 446.998-446.998S757.308 64.129 510.438 64.129z m273.648 720.647c-35.561 35.561-76.954 63.473-123.03 82.962-47.672 20.164-98.348 30.388-150.619 30.388s-102.946-10.224-150.618-30.388c-46.076-19.489-87.47-47.401-123.03-82.962-35.561-35.561-63.473-76.954-82.961-123.03-20.164-47.672-30.388-98.348-30.388-150.619s10.224-102.946 30.388-150.619c19.488-46.076 47.401-87.469 82.961-123.03 35.56-35.561 76.954-63.473 123.03-82.962 47.672-20.164 98.348-30.388 150.618-30.388 52.271 0 102.946 10.224 150.619 30.388 46.076 19.489 87.469 47.401 123.03 82.962 35.561 35.561 63.473 76.954 82.962 123.03 20.164 47.672 30.388 98.348 30.388 150.619s-10.224 102.946-30.388 150.619c-19.489 46.076-47.401 87.469-82.962 123.03z" fill="#5CC489" p-id="31541"></path><path d="M680.904 360.226L434.675 598.993l-95.018-89.512c-12.06-11.36-31.046-10.793-42.408 1.265-11.361 12.061-10.794 31.047 1.265 42.408l115.889 109.173a29.912 29.912 0 0 0 20.57 8.164 29.916 29.916 0 0 0 20.885-8.463L722.674 403.3c11.895-11.534 12.187-30.527 0.652-42.421s-30.526-12.187-42.422-0.653z" fill="#5CC489" p-id="31542"></path></svg>