<svg id="图层_1" data-name="图层 1" xmlns="http://www.w3.org/2000/svg" viewBox="0 0 49 49"><defs><style>.cls-1{fill:#6e7a8e;stroke:#6e7a8e;stroke-miterlimit:10;}</style></defs><title>金币</title><path class="cls-1" d="M27.3,21.8c-1.5-.5-7-1.1-7-2.9,0-1.3,2.1-1.7,3.3-1.7a6.32,6.32,0,0,1,3.2.8,3.24,3.24,0,0,1,.8.9c.2.4.3.8,1,.8h3.7c.9,0,1.1-.1,1.1-.8,0-3-3.2-4.7-6.8-5.3V11.2c0-.5-.2-.9-1.1-.9H22.6c-.9,0-1.1.3-1.1.9v2.3c-3.9.6-7.1,2.4-7.1,5.7,0,3.7,3.5,4.9,7.2,5.9,3.2.8,6.5.8,6.5,2.5s-1.6,2-3.7,2a6,6,0,0,1-3.7-1,1.69,1.69,0,0,1-.7-1.2c-.1-.7-.5-.8-1.3-.8H15.1c-.9,0-1.1.1-1.1.8,0,3.4,3.6,5.4,7.5,6v2.3c0,.5.2.9,1.1.9h2.9c.9,0,1.1-.3,1.1-.9V33.5C31,33,34,31,34,27.5c0-4.2-4-5-6.7-5.7M24,45A21,21,0,1,1,45,24,21,21,0,0,1,24,45M24,0A24,24,0,1,0,48,24,23.94,23.94,0,0,0,24,0" transform="translate(0.5 0.5)"/></svg>