<svg id="图层_1" data-name="图层 1" xmlns="http://www.w3.org/2000/svg" viewBox="0 0 193.76 193.76"><defs><style>.cls-1{fill:#fff;}.cls-2{fill:#11141e;}</style></defs><title>fw</title><circle class="cls-1" cx="96.88" cy="96.88" r="96.88"/><path class="cls-2" d="M133.28,81.32c0-.84,0-1.68-.06-2.51a37.9,37.9,0,0,0,9.22-9.91,35.23,35.23,0,0,1-10.61,2.91A19,19,0,0,0,140,61.2a35.58,35.58,0,0,1-11.73,4.52,18.36,18.36,0,0,0-13.48-6.36c-10.19-.17-18.46,8.45-18.46,19.25a20.52,20.52,0,0,0,.48,4.46c-15.36-1-29-9-38.07-21a20.71,20.71,0,0,0,5.71,26.38,17.74,17.74,0,0,1-8.36-2.56v.25c0,9.55,6.37,17.56,14.82,19.43a17.46,17.46,0,0,1-4.87.66,16.25,16.25,0,0,1-3.47-.38c2.35,7.84,9.17,13.56,17.25,13.75a35.54,35.54,0,0,1-27.34,8.07,49.78,49.78,0,0,0,28.31,8.87c34,0,52.53-29.55,52.53-55.19Z" transform="translate(-0.56 -1.06)"/></svg>