<svg id="图层_1" data-name="图层 1" xmlns="http://www.w3.org/2000/svg" viewBox="0 0 65 65"><defs><style>.cls-1{fill:#1677fe;}.cls-2{fill:none;stroke:#1677fe;stroke-miterlimit:10;stroke-width:4px;}</style></defs><title>我的(3)</title><path class="cls-1" d="M33.1,12.7A12.27,12.27,0,0,0,20.8,24.9a12,12,0,0,0,4.7,9.6A22.65,22.65,0,0,0,10.8,52.1a2,2,0,0,0,1.6,2.3h.3a2,2,0,0,0,2-1.7A18.52,18.52,0,0,1,33.1,37.1,12.29,12.29,0,0,0,45.4,24.8,12.12,12.12,0,0,0,33.1,12.7Zm0,20.6A8.3,8.3,0,1,1,41.4,25,8.28,8.28,0,0,1,33.1,33.3ZM55.4,52.2A22.29,22.29,0,0,0,44.9,36.6a2,2,0,1,0-2.4,3.2c.1.1.2.1.3.2a18.7,18.7,0,0,1,8.7,12.9,2,2,0,0,0,2,1.7h.3A2.3,2.3,0,0,0,55.4,52.2Z" transform="translate(-0.9 -0.6)"/><circle class="cls-2" cx="32.5" cy="32.5" r="30.5"/></svg>