<svg id="图层_1" data-name="图层 1" xmlns="http://www.w3.org/2000/svg" viewBox="0 0 46.75 36.73"><defs><style>.cls-1{fill:#6e7a8e;}</style></defs><title>Wallet Profiler</title><path class="cls-1" d="M43.17,42.37H13.11A8.34,8.34,0,0,1,4.77,34V14a8.34,8.34,0,0,1,8.34-8.35H43.17A8.34,8.34,0,0,1,51.51,14h0V34a8.34,8.34,0,0,1-8.34,8.35Zm-28.39-5H41.5a5,5,0,0,0,5-5V20.66H9.78V32.35a5,5,0,0,0,5,5ZM41.5,10.64H14.78a5,5,0,0,0-5,5H46.51a5,5,0,0,0-5-5Zm-9.29,16.7H39.1a2.4,2.4,0,0,1,2.4,2.4h0V30a2.41,2.41,0,0,1-2.4,2.4H32.21a2.4,2.4,0,0,1-2.4-2.4h0v-.21a2.39,2.39,0,0,1,2.4-2.4Z" transform="translate(-4.77 -5.63)"/></svg>