<svg id="图层_1" data-name="图层 1" xmlns="http://www.w3.org/2000/svg" viewBox="0 0 46.74 36.72"><defs><style>.cls-1{fill:#1677fe;}</style></defs><title>Wallet Profiler白色</title><path class="cls-1" d="M38.4,36.74H8.34A8.33,8.33,0,0,1,0,28.4v-20A8.33,8.33,0,0,1,8.33,0H38.4a8.33,8.33,0,0,1,8.34,8.34h0v20a8.33,8.33,0,0,1-8.33,8.35h0ZM10,31.74H36.73a5,5,0,0,0,5-5V15H5V26.72a5,5,0,0,0,5,5ZM36.73,5H10a5,5,0,0,0-5,5H41.74a5,5,0,0,0-5-5Zm-9.29,16.7h6.89a2.39,2.39,0,0,1,2.4,2.4h0v.26a2.42,2.42,0,0,1-2.4,2.4H27.44a2.39,2.39,0,0,1-2.4-2.4h0v-.21a2.39,2.39,0,0,1,2.38-2.4h0Z" transform="translate(0 -0.02)"/></svg>