<svg id="图层_1" data-name="图层 1" xmlns="http://www.w3.org/2000/svg" viewBox="0 0 16.67 14.17"><defs><style>.cls-1{fill:#1677fe;}</style></defs><title>wallet (2)</title><path class="cls-1" d="M13.33,10H15v2.5H13.33Z" transform="translate(-1.67 -2.5)"/><path class="cls-1" d="M17.5,5.83h-.83V3.33a.84.84,0,0,0-.84-.83H4.17A2.43,2.43,0,0,0,1.67,5v9.17a2.43,2.43,0,0,0,2.5,2.5H17.5a.84.84,0,0,0,.83-.84h0V6.67a.84.84,0,0,0-.83-.84ZM4.17,4.17H15V5.83H4.18A.77.77,0,0,1,3.33,5,.76.76,0,0,1,4.17,4.17ZM16.67,15H4.18a.77.77,0,0,1-.85-.83V7.36a2.59,2.59,0,0,0,.84.14h12.5Z" transform="translate(-1.67 -2.5)"/></svg>