<?xml version="1.0" standalone="no"?><!DOCTYPE svg PUBLIC "-//W3C//DTD SVG 1.1//EN" "http://www.w3.org/Graphics/SVG/1.1/DTD/svg11.dtd"><svg t="1650247532840" class="icon" viewBox="0 0 1024 1024" version="1.1" xmlns="http://www.w3.org/2000/svg" p-id="2320" xmlns:xlink="http://www.w3.org/1999/xlink" width="200" height="200"><defs><style type="text/css">@font-face { font-family: feedback-iconfont; src: url("//at.alicdn.com/t/font_1031158_u69w8yhxdu.woff2?t=1630033759944") format("woff2"), url("//at.alicdn.com/t/font_1031158_u69w8yhxdu.woff?t=1630033759944") format("woff"), url("//at.alicdn.com/t/font_1031158_u69w8yhxdu.ttf?t=1630033759944") format("truetype"); }
</style></defs><path d="M688.015318 350.807784c11.279904 0 22.440082 0.811482 33.504068 2.078335C691.413717 212.663494 541.536198 108.534925 370.453728 108.534925 179.189613 108.534925 22.516318 238.892879 22.516318 404.442332c0 95.553263 52.125171 174.024475 139.228995 234.908124l-34.801621 104.669898 121.637338-61.004399c43.521213 8.601912 78.440513 17.444301 121.871675 17.444301 10.9197 0 21.74935-0.537236 32.486902-1.38044-6.800893-23.24747-10.737552-47.610344-10.737552-72.906473C392.203078 474.15916 522.738064 350.807784 688.015318 350.807784zM500.931409 256.45793c26.199709 0 43.552935 17.262152 43.552935 43.431162 0 26.076912-17.353227 43.551912-43.552935 43.551912-26.077935 0-52.245921-17.475-52.245921-43.551912C448.686511 273.721105 474.854497 256.45793 500.931409 256.45793zM257.422396 343.441003c-26.077935 0-52.394301-17.475-52.394301-43.551912 0-26.169009 26.316366-43.431162 52.394301-43.431162s43.431162 17.262152 43.431162 43.431162C300.853557 325.966003 283.500331 343.441003 257.422396 343.441003z" p-id="2321" fill="#6e7a8e"></path><path d="M1005.576907 622.019743c0-139.138944-139.198296-252.526387-295.54311-252.526387-165.549453 0-295.937083 113.388467-295.937083 252.526387 0 139.319046 130.386606 252.472152 295.937083 252.472152 34.646078 0 69.599148-8.720615 104.397698-17.445324l95.438653 52.277644-26.167986-86.984097C953.538717 769.941724 1005.576907 700.459233 1005.576907 622.019743zM614.083491 578.465784c-17.323551 0-34.796504-17.235546-34.796504-34.828226 0-17.321504 17.472953-34.770921 34.796504-34.770921 26.317389 0 43.552935 17.449417 43.552935 34.770921C657.635403 561.230238 640.399857 578.465784 614.083491 578.465784zM805.467333 578.465784c-17.204847 0-34.558074-17.235546-34.558074-34.828226 0-17.321504 17.35425-34.770921 34.558074-34.770921 26.077935 0 43.553958 17.449417 43.553958 34.770921C849.021292 561.230238 831.545268 578.465784 805.467333 578.465784z" p-id="2322" fill="#6e7a8e"></path></svg>