<svg id="图层_1" data-name="图层 1" xmlns="http://www.w3.org/2000/svg" viewBox="0 0 348.97 348.97"><defs><style>.cls-1,.cls-2{fill:#94a2b9;}.cls-2{fill-rule:evenodd;}</style></defs><title>x2y2</title><path class="cls-1" d="M313,68.4a148.32,148.32,0,1,0,0,212.17A174.49,174.49,0,1,1,313,68.4Z"/><path class="cls-1" d="M98.55,259.36a118.65,118.65,0,1,0,0-169.74,139.59,139.59,0,1,1,0,169.74Z"/><path class="cls-2" d="M279.18,174.49A104.7,104.7,0,1,1,174.49,69.79,104.69,104.69,0,0,1,279.18,174.49Zm-34.9,0a69.8,69.8,0,1,1-69.79-69.8A69.8,69.8,0,0,1,244.28,174.49Z"/></svg>