<?xml version="1.0" encoding="utf-8"?>
<!-- Generator: Adobe Illustrator 24.0.1, SVG Export Plug-In . SVG Version: 6.00 Build 0)  -->
<svg version="1.1" id="图层_1" xmlns="http://www.w3.org/2000/svg" xmlns:xlink="http://www.w3.org/1999/xlink" x="0px" y="0px"
	 viewBox="0 0 28 28" style="enable-background:new 0 0 28 28;" xml:space="preserve">
<style type="text/css">
	.st0{fill:#5CC489;}
</style>
<path class="st0" d="M12.8,18.7c-0.4,0-0.6-0.1-0.8-0.4l-3.5-3.5c-0.5-0.5-0.5-1.2,0-1.6c0.5-0.5,1.2-0.5,1.6,0l3.5,3.5
	c0.5,0.5,0.5,1.2,0,1.6C13.4,18.6,13.2,18.7,12.8,18.7z"/>
<path class="st0" d="M12.8,18.7c-0.4,0-0.6-0.1-0.8-0.4c-0.5-0.5-0.5-1.2,0-1.6l7-7c0.5-0.5,1.2-0.5,1.6,0c0.5,0.5,0.5,1.2,0,1.6
	l-7,7C13.4,18.6,13.2,18.7,12.8,18.7z"/>
</svg>
