<svg id="图层_1" data-name="图层 1" xmlns="http://www.w3.org/2000/svg" viewBox="0 0 32 32"><defs><style>.cls-1{fill:#fff;}</style></defs><title>yes061702</title><path class="cls-1" d="M16,32A16,16,0,1,1,32,16,16.06,16.06,0,0,1,16,32ZM16,2.67A13.33,13.33,0,1,0,29.33,16,13.36,13.36,0,0,0,16,2.67Z"/><path class="cls-1" d="M14.65,21.33a1.22,1.22,0,0,1-.92-.39l-4-4a1.33,1.33,0,1,1,1.88-1.88l4,4a1.31,1.31,0,0,1,0,1.88A1.23,1.23,0,0,1,14.65,21.33Z"/><path class="cls-1" d="M14.65,21.33a1.22,1.22,0,0,1-.92-.39,1.29,1.29,0,0,1,0-1.88l8-8a1.33,1.33,0,1,1,1.88,1.88l-8,8A1.23,1.23,0,0,1,14.65,21.33Z"/></svg>